<mxfile host="app.diagrams.net" modified="2023-09-04T03:52:37.209Z" agent="Mozilla/5.0 (X11; Ubuntu; Linux x86_64; rv:109.0) Gecko/20100101 Firefox/117.0" version="21.7.2" etag="_lIhDeXWdostKX_1g0Xg" type="github">
  <diagram name="Page-1" id="AYoHofWYZxN0NZMTVe19">
    <mxGraphModel>
      <root>
        <mxCell id="0" />
        <mxCell id="1" parent="0" />
      </root>
    </mxGraphModel>
  </diagram>
</mxfile>
